<svg width="200" height="54" viewBox="0 0 200 54" fill="none" xmlns="http://www.w3.org/2000/svg">
<rect x="0.5" y="0.5" width="199" height="53" rx="7.5" stroke="#F6F4FD"/>
<path d="M56.0336 26.7029L59.7232 30.4411L64.467 27.6211C64.8623 27.4243 65.06 27.0964 65.06 26.6373C65.06 26.2438 64.8623 25.9159 64.467 25.7192L59.7891 22.9647L56.0336 26.7029ZM74.7452 14.898H76.7876C77.5124 14.898 78.1054 15.1603 78.5666 15.685C79.0277 16.144 79.2913 16.7999 79.2913 17.5213C79.2913 18.2427 79.0277 18.8329 78.5666 19.3576C78.1054 19.8167 77.5124 20.079 76.7876 20.079H74.7452V14.898ZM75.4699 19.4232H76.7876C77.3147 19.4232 77.7759 19.2264 78.1054 18.8985C78.4348 18.505 78.6324 18.0459 78.6324 17.5213C78.6324 16.931 78.4348 16.4719 78.1054 16.144C77.7759 15.7505 77.3147 15.5538 76.7876 15.5538H75.4699V19.4232ZM80.3455 20.079V14.898H81.0702V20.079H80.3455ZM84.0351 20.2102C83.5739 20.2102 83.1785 20.079 82.7832 19.8823C82.4538 19.6199 82.2561 19.292 82.0585 18.8985L82.6515 18.5706C82.8491 19.2264 83.3762 19.4888 84.1009 19.4888C84.4304 19.4888 84.6939 19.4232 84.8916 19.292C85.0892 19.1609 85.1551 18.9641 85.1551 18.7018C85.1551 18.505 85.0892 18.3083 84.8916 18.1771C84.6939 18.0459 84.4304 17.9148 83.9692 17.7836L83.4421 17.5869C83.3103 17.5869 83.1785 17.5213 83.0468 17.3901C82.8491 17.3245 82.7173 17.2589 82.6515 17.1278C82.4538 16.931 82.322 16.6031 82.322 16.2752C82.322 15.8161 82.4538 15.4882 82.7832 15.2259C83.1127 14.9635 83.508 14.8324 83.9692 14.8324C84.3645 14.8324 84.6939 14.898 85.0233 15.0947C85.3528 15.2915 85.5504 15.6194 85.6822 15.9473L85.1551 16.2752C84.8916 15.7505 84.4963 15.4882 83.9692 15.4882C83.6397 15.4882 83.4421 15.5538 83.2444 15.685C83.1127 15.8161 82.9809 16.0129 82.9809 16.2752C82.9809 16.4719 83.1127 16.6687 83.2444 16.7999C83.4421 16.8654 83.7056 16.9966 84.1009 17.1278L84.4304 17.2589C84.5621 17.2589 84.6939 17.3245 84.6939 17.3245C84.8257 17.3901 85.0233 17.4557 85.221 17.5869C85.3528 17.6524 85.4845 17.7836 85.6163 17.9148C85.7481 18.1115 85.8799 18.3739 85.8799 18.7018C85.8799 19.1609 85.6822 19.5543 85.3528 19.8167C85.0233 20.079 84.5621 20.2102 84.0351 20.2102ZM86.934 14.898H88.7788C89.3059 14.898 89.7012 15.0947 90.0307 15.4226C90.2942 15.685 90.4919 16.0784 90.4919 16.6031C90.4919 17.0622 90.2942 17.4557 90.0307 17.7836C89.7012 18.1115 89.3059 18.2427 88.7788 18.2427H87.5929V20.079H86.934V14.898ZM87.5929 17.5869H88.7788C89.1083 17.5869 89.3059 17.5213 89.5036 17.3245C89.7012 17.1278 89.833 16.8654 89.833 16.6031C89.833 16.2752 89.7012 16.0129 89.5036 15.8161C89.3059 15.685 89.1083 15.5538 88.7788 15.5538H87.5929V17.5869ZM91.2825 17.5213C91.2825 16.7343 91.546 16.144 92.0731 15.6194C92.6002 15.0947 93.1932 14.8324 93.9838 14.8324C94.7085 14.8324 95.3674 15.0947 95.8945 15.6194C96.4216 16.144 96.6851 16.7343 96.6851 17.5213C96.6851 18.2427 96.4216 18.8985 95.8945 19.4232C95.3674 19.9478 94.7085 20.2102 93.9838 20.2102C93.1932 20.2102 92.5343 19.9478 92.0731 19.4232C91.546 18.8985 91.2825 18.2427 91.2825 17.5213ZM95.9604 17.5213C95.9604 16.931 95.7627 16.4719 95.3674 16.0784C94.9721 15.685 94.5109 15.4882 93.9838 15.4882C93.3908 15.4882 92.9296 15.685 92.5343 16.0784C92.139 16.4719 91.9413 16.931 91.9413 17.5213C91.9413 18.0459 92.139 18.5706 92.5343 18.9641C92.9296 19.3576 93.3908 19.4888 93.9838 19.4888C94.5109 19.4888 95.038 19.292 95.3674 18.9641C95.7627 18.5706 95.9604 18.0459 95.9604 17.5213ZM100.968 18.7674V14.898H101.692V20.079H101.165L98.464 16.2096V20.079H97.7393V14.898H98.3323L100.968 18.7674ZM103.076 20.079V14.898H103.801V20.079H103.076ZM108.149 17.3901C108.413 17.5213 108.545 17.718 108.742 17.9148C108.874 18.1115 108.94 18.3739 108.94 18.6362C108.94 19.0297 108.742 19.4232 108.479 19.6855C108.215 19.9478 107.82 20.079 107.424 20.079H105.184V14.898H107.227C107.688 14.898 108.017 15.0291 108.281 15.2915C108.545 15.6194 108.676 15.9473 108.676 16.3408C108.676 16.7999 108.545 17.1278 108.149 17.3901ZM107.227 15.5538H105.843V17.1278H107.227C107.49 17.1278 107.622 17.0622 107.82 16.931C107.952 16.7343 108.017 16.6031 108.017 16.3408C108.017 16.144 107.952 15.9473 107.82 15.8161C107.622 15.6194 107.49 15.5538 107.227 15.5538ZM105.843 19.4232H107.424C107.622 19.4232 107.82 19.3576 108.017 19.2264C108.149 19.0297 108.215 18.8329 108.215 18.6362C108.215 18.3739 108.149 18.1771 108.017 18.0459C107.82 17.8492 107.622 17.7836 107.424 17.7836H105.843V19.4232ZM110.719 14.898V19.4232H112.959V20.079H109.994V14.898H110.719ZM114.606 17.7836V19.4232H117.044V20.079H113.947V14.898H116.978V15.5538H114.606V17.1278H116.78V17.7836H114.606ZM120.667 17.7836V19.4232H123.105V20.079H120.009V14.898H123.039V15.5538H120.667V17.1278H122.908V17.7836H120.667ZM127.454 18.7674V14.898H128.113V20.079H127.585L124.884 16.2096V20.079H124.225V14.898H124.752L127.454 18.7674ZM43.4495 39.1637C43.5813 39.2293 43.713 39.2948 43.8448 39.3604C44.1083 39.426 44.4378 39.3604 44.7013 39.2293L58.8667 30.9002L55.3748 27.3587L43.4495 39.1637ZM42.6589 39.8195C42.2635 39.426 42 38.9013 42 38.2455V15.0947C42 14.3733 42.3294 13.7175 42.8565 13.3895C43.5154 12.9305 44.4378 12.8649 45.1625 13.2584L64.9941 24.8666C66.3777 25.6536 66.3777 27.6866 64.9941 28.4736L45.1625 40.0163C44.3719 40.4753 43.3836 40.4098 42.6589 39.8195ZM43.5154 14.111L55.3748 26.0471L58.9326 22.44L44.7013 14.111C44.306 13.9142 43.8448 13.9142 43.5154 14.111ZM42.9883 38.3111C46.8755 34.4417 50.7628 30.5723 54.65 26.7029L42.9883 14.9635V38.3111ZM139.577 36.9339H141.421V24.5387H139.577V36.9339ZM156.312 28.9983L154.203 34.3761H154.137L151.897 28.9983H149.921L153.215 36.5404L151.304 40.7377H153.281L158.354 28.9983H156.312ZM145.77 35.5566C145.177 35.5566 144.32 35.2287 144.32 34.5073C144.32 33.5235 145.375 33.1956 146.297 33.1956C147.088 33.1956 147.483 33.3268 147.944 33.5891C147.812 34.7696 146.824 35.5566 145.77 35.5566ZM145.968 28.736C144.65 28.736 143.266 29.3262 142.673 30.6379L144.32 31.3593C144.65 30.6379 145.309 30.4411 146.033 30.4411C146.956 30.4411 147.944 31.0314 147.944 32.0151V32.1463C147.615 31.9495 146.89 31.6872 146.033 31.6872C145.243 31.6872 144.518 31.884 143.859 32.2119C143.003 32.671 142.41 33.458 142.41 34.4417C142.41 35.3599 142.871 36.0813 143.53 36.5404C144.057 36.9994 144.782 37.1962 145.506 37.1962C146.758 37.1962 147.483 36.6059 147.878 36.0157H147.944V36.9339H149.789V32.2119C149.789 30.9002 149.196 29.9165 148.274 29.3262C147.615 28.9327 146.824 28.736 145.968 28.736ZM134.503 30.5067H131.868V26.3094H134.503C135.887 26.3094 136.678 27.4243 136.678 28.4081C136.678 29.3918 135.887 30.5067 134.503 30.5067ZM134.438 24.5387H129.957V36.9339H131.868V32.2775H134.438C135.624 32.2775 136.809 31.7528 137.6 30.9002C138.127 30.2444 138.523 29.3918 138.523 28.4081C138.523 27.4243 138.193 26.5717 137.6 25.9159C136.809 25.0633 135.624 24.5387 134.438 24.5387ZM110.126 35.5566C108.808 35.5566 107.754 34.5073 107.754 32.9989C107.754 31.556 108.808 30.4411 110.126 30.4411C111.378 30.4411 112.366 31.556 112.366 32.9989C112.366 34.5073 111.378 35.5566 110.126 35.5566ZM112.234 29.7197H112.168C111.773 29.1951 110.982 28.8016 109.928 28.8016C109.006 28.8016 108.017 29.1951 107.293 29.8509C106.436 30.5723 105.909 31.7528 105.909 32.9989C105.909 34.5073 106.634 35.7534 107.754 36.5404C108.413 36.9339 109.138 37.1962 109.928 37.1962C110.982 37.1962 111.773 36.8027 112.168 36.278H112.234V36.8683C112.234 38.5078 111.378 39.3604 109.994 39.3604C108.874 39.3604 108.149 38.5078 107.886 37.852L106.239 38.5078C106.7 39.6228 107.952 41 109.994 41C112.168 41 114.013 39.7539 114.013 36.6059V28.9983H112.234V29.7197ZM115.331 36.9339H117.176V24.5387H115.331V36.9339ZM119.943 32.8677C119.877 31.2281 121.195 30.3755 122.117 30.3755C122.908 30.3755 123.501 30.769 123.698 31.2937L121.722 32.1463L119.943 32.8677ZM125.675 31.4905C125.345 30.5067 124.291 28.8016 122.051 28.8016C121.129 28.8016 120.272 29.0639 119.547 29.6541C118.691 30.3755 118.098 31.556 118.098 32.9989C118.098 35.3599 119.877 37.1962 122.315 37.1962C124.225 37.1962 125.345 36.0157 125.807 35.3599L124.357 34.3761C123.896 35.0975 123.237 35.5566 122.315 35.5566C121.326 35.5566 120.667 35.0975 120.206 34.2449L125.872 31.9495L125.675 31.4905ZM80.5431 30.0476V31.884H84.8257C84.6939 32.8677 84.3645 33.5891 83.8374 34.1138C83.2444 34.7696 82.2561 35.4254 80.5431 35.4254C77.8418 35.4254 75.7994 33.3268 75.7994 30.6379C75.7994 28.0146 77.8418 25.9159 80.5431 25.9159C81.9267 25.9159 82.9809 26.4406 83.7715 27.162L85.0233 25.9159C83.9692 24.8666 82.5197 24.0796 80.5431 24.0796C79.2913 24.0796 78.1053 24.4731 77.1171 25.0633C75.1405 26.1782 73.8228 28.2769 73.8228 30.6379C73.8228 33.13 75.2723 35.2943 77.3147 36.4092C78.2371 36.9339 79.3572 37.1962 80.5431 37.1962C82.4538 37.1962 83.9692 36.6059 85.0892 35.3599C86.2752 34.1794 86.6705 32.5398 86.6705 31.1625C86.6705 30.769 86.6705 30.3755 86.6046 30.0476H80.5431ZM91.546 35.5566C90.2942 35.5566 89.1741 34.5073 89.1741 32.9989C89.1741 31.4905 90.2942 30.4411 91.546 30.4411C92.8637 30.4411 93.9838 31.4905 93.9838 32.9989C93.9838 34.5073 92.8637 35.5566 91.546 35.5566ZM91.546 28.8016C90.6895 28.8016 89.8989 28.9983 89.1741 29.4574C88.0541 30.1788 87.3293 31.4905 87.3293 32.9989C87.3293 34.1794 87.7905 35.2943 88.5812 36.0157C89.3059 36.8027 90.426 37.1962 91.546 37.1962C92.5343 37.1962 93.4567 36.9339 94.1815 36.3436C95.1697 35.6222 95.8286 34.4417 95.8286 32.9989C95.8286 32.2119 95.6309 31.4249 95.2356 30.8346C94.5109 29.5886 93.1273 28.8016 91.546 28.8016ZM100.836 35.5566C99.5841 35.5566 98.464 34.5073 98.464 32.9989C98.464 31.4905 99.5841 30.4411 100.836 30.4411C102.154 30.4411 103.274 31.4905 103.274 32.9989C103.274 34.5073 102.154 35.5566 100.836 35.5566ZM100.836 28.8016C99.65 28.8016 98.5958 29.1951 97.8052 29.982C97.0804 30.7035 96.6192 31.7528 96.6192 32.9989C96.6192 34.3105 97.1463 35.3599 98.0028 36.1469C98.7276 36.8027 99.7817 37.1962 100.836 37.1962C101.89 37.1962 102.878 36.8683 103.603 36.278C104.526 35.491 105.118 34.3761 105.118 32.9989C105.118 32.0151 104.789 31.097 104.262 30.3755C103.471 29.3918 102.22 28.8016 100.836 28.8016Z" fill="#F6F4FD"/>
</svg>
