<svg width="35" height="31" viewBox="0 0 35 31" fill="none" xmlns="http://www.w3.org/2000/svg">
<path fill-rule="evenodd" clip-rule="evenodd" d="M13.6405 19.7691V15.4619V11.1547C13.6405 10.8209 13.8173 10.5278 14.112 10.3568C14.4151 10.1858 14.7687 10.1858 15.0719 10.3568L18.9198 12.5145L22.7762 14.664C23.0793 14.835 23.2561 15.1199 23.2561 15.4619C23.2561 15.7957 23.0793 16.0888 22.7762 16.2598L18.9198 18.4094L15.0719 20.567C14.7687 20.7299 14.4151 20.7299 14.112 20.567C13.8173 20.396 13.6405 20.1029 13.6405 19.7691ZM17.4632 0C6.55079 0 0 4.38861 0 15.4619C0 26.5352 6.55079 30.9238 17.4632 30.9238C27.1209 30.9238 33.8401 27.4878 34.8 17.9208H26.0684C25.9169 19.2643 25.5801 20.7217 24.6539 21.5848C22.9699 23.1644 19.5261 23.4249 17.4632 23.4249C15.3918 23.4249 11.948 23.1644 10.264 21.5848C8.82419 20.2332 8.72315 17.3834 8.72315 15.4619C8.72315 13.5322 8.82419 10.6825 10.264 9.33902C11.948 7.75945 15.3918 7.4989 17.4632 7.4989C19.5261 7.4989 22.9699 7.75945 24.6539 9.33902C25.5801 10.2021 25.9169 11.6595 26.0684 12.9948H34.8C33.8401 3.42784 27.1209 0 17.4632 0Z" fill="#6B54D6"/>
</svg>
