<svg width="56" height="56" viewBox="0 0 56 56" fill="none" xmlns="http://www.w3.org/2000/svg">
<g clip-path="url(#clip0_74_814)">
<path d="M53.0003 19.8438C52.2613 17.5557 52.5763 14.121 50.6557 11.469C48.72 8.79608 45.3533 8.03637 43.4523 6.64599C41.5713 5.27027 39.8213 2.27657 36.6571 1.24407C33.5823 0.240662 30.438 1.60227 28 1.60227C25.5624 1.60227 22.4183 0.240333 19.3429 1.24396C16.1793 2.27624 14.4279 5.2706 12.548 6.64566C10.6491 8.0344 7.27989 8.79619 5.3445 11.4687C3.42552 14.1185 3.73734 17.5611 2.99972 19.8437C2.29775 22.0162 0 24.6236 0 28.0003C0 31.379 2.29513 33.9763 2.99972 36.1567C3.73866 38.4448 3.42366 41.8795 5.34428 44.5315C7.27989 47.2045 10.6465 47.9641 12.5477 49.3546C14.4284 50.7301 16.1787 53.7241 19.3429 54.7564C22.4156 55.7592 25.5649 54.3982 28 54.3982C30.4317 54.3982 33.5883 55.7578 36.6571 54.7566C39.8208 53.7243 41.5711 50.7306 43.452 49.3548C45.3509 47.9661 48.7201 47.2043 50.6555 44.5318C52.5746 41.8819 52.2625 38.4397 53.0003 36.1568C53.7023 33.9842 56 31.3768 56 28.0003C56 24.6218 53.7054 22.0252 53.0003 19.8438ZM48.8374 34.8115C47.976 37.4775 48.2017 40.4611 47.1123 41.9655C46.0083 43.4898 43.1077 44.1861 40.8696 45.8232C38.656 47.4421 37.1045 50.0084 35.3 50.5971C33.5929 51.1543 30.8108 50.023 28.0001 50.023C25.1688 50.023 22.4154 51.1567 20.7001 50.5971C18.8958 50.0084 17.3465 47.4439 15.1305 45.8231C12.9056 44.196 9.98856 43.4854 8.8877 41.9653C7.80183 40.4659 8.01894 37.4616 7.16286 34.8116C6.32373 32.2151 4.375 29.9669 4.375 28.0003C4.375 26.0316 6.32198 23.7912 7.16264 21.189C8.02397 18.5231 7.79833 15.5393 8.8877 14.035C9.99108 12.5117 12.8938 11.8131 15.1305 10.1773C17.3511 8.55316 18.8929 5.99302 20.6999 5.40338C22.4056 4.84688 25.1967 5.97749 27.9999 5.97749C30.8363 5.97749 33.5828 4.84305 35.2999 5.40338C37.1039 5.99204 38.6545 8.55754 40.8696 10.1774C43.0942 11.8046 46.0114 12.5152 47.1123 14.0351C48.1984 15.5348 47.9801 18.536 48.8371 21.1888V21.1889C49.6763 23.7854 51.625 26.0336 51.625 28.0003C51.625 29.9689 49.678 32.2093 48.8374 34.8115ZM38.0781 20.9789C38.9325 21.8333 38.9325 23.2183 38.0781 24.0725L27.129 35.0216C26.2747 35.8759 24.8896 35.8758 24.0354 35.0216L17.922 28.9082C17.0676 28.0539 17.0675 26.6688 17.9219 25.8146C18.7762 24.9604 20.1614 24.9603 21.0154 25.8146L25.5822 30.3812L34.9844 20.979C35.8387 20.1247 37.2238 20.1247 38.0781 20.9789Z" fill="white"/>
</g>
<defs>
<clipPath id="clip0_74_814">
<rect width="56" height="56" fill="white"/>
</clipPath>
</defs>
</svg>
