<svg width="55" height="55" viewBox="0 0 55 55" fill="none" xmlns="http://www.w3.org/2000/svg">
<g clip-path="url(#clip0_74_810)">
<path d="M48.1248 28.4708V25.2075C48.1248 19.7374 45.9518 14.4914 42.0839 10.6234C38.216 6.7555 32.9699 4.58252 27.4998 4.58252C22.0297 4.58252 16.7837 6.7555 12.9157 10.6234C9.0478 14.4914 6.87482 19.7374 6.87482 25.2075V28.4708C4.47122 29.5292 2.50415 31.3812 1.30291 33.7166C0.101663 36.0521 -0.260836 38.7293 0.276093 41.3002C0.813023 43.871 2.21679 46.1793 4.25239 47.8388C6.28799 49.4982 8.83187 50.408 11.4581 50.4158C12.6737 50.4158 13.8395 49.933 14.6991 49.0734C15.5586 48.2139 16.0415 47.0481 16.0415 45.8325V32.0825C16.0415 30.8669 15.5586 29.7012 14.6991 28.8416C13.8395 27.9821 12.6737 27.4992 11.4581 27.4992V25.2075C11.4581 20.953 13.1482 16.8727 16.1566 13.8643C19.165 10.856 23.2453 9.16585 27.4998 9.16585C31.7543 9.16585 35.8346 10.856 38.843 13.8643C41.8514 16.8727 43.5415 20.953 43.5415 25.2075V27.4992C42.3259 27.4992 41.1601 27.9821 40.3006 28.8416C39.441 29.7012 38.9581 30.8669 38.9581 32.0825V45.8325H32.0831C31.4754 45.8325 30.8925 46.074 30.4627 46.5037C30.0329 46.9335 29.7915 47.5164 29.7915 48.1242C29.7915 48.732 30.0329 49.3149 30.4627 49.7446C30.8925 50.1744 31.4754 50.4158 32.0831 50.4158H43.5415C46.1678 50.408 48.7116 49.4982 50.7472 47.8388C52.7828 46.1793 54.1866 43.871 54.7235 41.3002C55.2605 38.7293 54.898 36.0521 53.6967 33.7166C52.4955 31.3812 50.5284 29.5292 48.1248 28.4708ZM11.4581 45.8325C9.63479 45.8325 7.8861 45.1082 6.59679 43.8189C5.30748 42.5296 4.58315 40.7809 4.58315 38.9575C4.58315 37.1342 5.30748 35.3855 6.59679 34.0962C7.8861 32.8068 9.63479 32.0825 11.4581 32.0825V45.8325ZM43.5415 45.8325V32.0825C45.3648 32.0825 47.1135 32.8068 48.4028 34.0962C49.6922 35.3855 50.4165 37.1342 50.4165 38.9575C50.4165 40.7809 49.6922 42.5296 48.4028 43.8189C47.1135 45.1082 45.3648 45.8325 43.5415 45.8325Z" fill="white"/>
</g>
<defs>
<clipPath id="clip0_74_810">
<rect width="55" height="55" fill="white"/>
</clipPath>
</defs>
</svg>
