<svg width="54" height="54" viewBox="0 0 54 54" fill="none" xmlns="http://www.w3.org/2000/svg">
<path d="M5.0103 49.0707C5.0418 49.0743 5.0688 49.0887 5.1003 49.0887H21.9465C21.9465 49.0887 21.9528 49.0905 21.9555 49.0905H47.8287C48.2238 49.0905 48.5739 48.8322 48.6891 48.4533L53.9604 31.2264C54.0441 30.9537 53.9937 30.6576 53.8236 30.4281C53.6544 30.1986 53.3853 30.0636 53.1 30.0636H30.9789C29.4147 26.3151 25.7409 23.8374 21.636 23.8374H10.1169C4.5387 23.8374 0 28.3788 0 33.9624V43.9884C0 44.0208 0.0153001 44.0478 0.0180001 44.0784C0.1962 46.7523 2.3355 48.8916 5.0094 49.0698L5.0103 49.0707ZM47.1636 47.2914H23.1732L27.8946 31.8645H51.885L47.1636 47.2914ZM1.8009 33.9633C1.8009 29.3733 5.5323 25.6383 10.1178 25.6383H21.6369C24.7536 25.6383 27.5697 27.3735 28.9962 30.0645H27.2286C26.8335 30.0645 26.4834 30.3228 26.3682 30.7017L21.2922 47.2896H19.1736C19.836 46.4517 20.1852 45.4446 20.1285 44.3925C20.0691 43.2972 19.6074 42.2649 18.8289 41.4864C17.9865 40.644 16.8669 40.1796 15.6771 40.1796H9.70739V34.9551C9.70739 34.4583 9.3042 34.0551 8.8074 34.0551C8.3106 34.0551 7.9074 34.4583 7.9074 34.9551V40.3758C7.9074 41.2605 8.6265 41.9796 9.5112 41.9796H15.6771C16.3872 41.9796 17.0541 42.2568 17.5563 42.759C18.0207 43.2234 18.2961 43.8381 18.3312 44.4897C18.369 45.1791 18.1143 45.8487 17.6148 46.3761C17.0649 46.9566 16.2927 47.2896 15.4962 47.2896H5.3703C3.402 47.2896 1.8009 45.6885 1.8009 43.7202V33.9642V33.9633Z" fill="white"/>
<path d="M6.96252 13.9145C6.96252 18.8294 10.9612 22.829 15.877 22.829C20.7928 22.829 24.7915 18.8303 24.7915 13.9145C24.7915 8.9987 20.7928 5 15.877 5C10.9612 5 6.96252 8.9987 6.96252 13.9145ZM22.9906 13.9145C22.9906 17.8376 19.7992 21.029 15.8761 21.029C11.953 21.029 8.76162 17.8376 8.76162 13.9145C8.76162 9.9914 11.953 6.8 15.8761 6.8C19.7992 6.8 22.9906 9.9914 22.9906 13.9145Z" fill="white"/>
</svg>
