<svg width="200" height="54" viewBox="0 0 200 54" fill="none" xmlns="http://www.w3.org/2000/svg">
<rect x="0.5" y="0.5" width="199" height="53" rx="7.5" stroke="#F6F4FD"/>
<path d="M60.2744 14.728C60.3792 16.0406 59.9462 17.3407 59.0674 18.3521C58.2147 19.3688 56.9227 19.9545 55.5619 19.941C55.4754 18.6662 55.921 17.4108 56.8006 16.4511C57.6913 15.4784 58.9316 14.8632 60.2744 14.728Z" fill="#F6F4FD"/>
<path d="M64.5776 22.4402C63.0124 23.3627 62.0492 24.9897 62.0255 26.751C62.0277 28.7438 63.2726 30.5422 65.187 31.3184C64.8188 32.4651 64.2638 33.5487 63.5426 34.5292C62.574 35.9183 61.5584 37.2753 59.9465 37.3004C59.1798 37.3174 58.6624 37.106 58.1231 36.8858C57.5607 36.6561 56.9746 36.4168 56.0574 36.4168C55.0847 36.4168 54.4724 36.6638 53.8818 36.9021C53.3714 37.108 52.8773 37.3074 52.1809 37.3351C50.6458 37.3896 49.4726 35.8525 48.4688 34.4765C46.4624 31.6664 44.9001 26.5571 46.9946 23.0807C47.9782 21.3863 49.8172 20.3111 51.8388 20.2485C52.7094 20.2313 53.5449 20.553 54.2773 20.835C54.8375 21.0507 55.3374 21.2432 55.7468 21.2432C56.1066 21.2432 56.5926 21.0583 57.159 20.8428C58.0511 20.5034 59.1428 20.088 60.2552 20.2C61.9838 20.2518 63.5857 21.082 64.5776 22.4402Z" fill="#F6F4FD"/>
<path fill-rule="evenodd" clip-rule="evenodd" d="M75.8882 33.8514H81.0145L82.2445 37.3363H84.4528L79.5973 24.4434H77.3414L72.4858 37.3363H74.6571L75.8882 33.8514ZM80.4825 32.2435H76.4191L78.4233 26.588H78.4794L80.4825 32.2435Z" fill="#F6F4FD"/>
<path fill-rule="evenodd" clip-rule="evenodd" d="M94.9393 32.6367C94.9393 35.5578 93.3085 37.4346 90.8474 37.4346C89.5753 37.4984 88.3771 36.8596 87.7624 35.79H87.7158V40.4459H85.7031V27.9363H87.6513V29.4997H87.6883C88.3303 28.4368 89.5299 27.7983 90.8104 27.8379C93.2989 27.8379 94.9393 29.7238 94.9393 32.6367ZM92.8707 32.6369C92.8707 30.7338 91.8448 29.4826 90.2796 29.4826C88.7418 29.4826 87.7074 30.7601 87.7074 32.6369C87.7074 34.5309 88.7418 35.7993 90.2796 35.7993C91.8449 35.7993 92.8707 34.5572 92.8707 32.6369Z" fill="#F6F4FD"/>
<path fill-rule="evenodd" clip-rule="evenodd" d="M101.639 37.4345C104.1 37.4345 105.731 35.5578 105.731 32.6367C105.731 29.7238 104.091 27.8379 101.602 27.8379C100.322 27.7983 99.122 28.4368 98.48 29.4997H98.443V27.9363H96.4949V40.4458H98.5075V35.79H98.5541C99.1688 36.8596 100.367 37.4983 101.639 37.4345ZM101.071 29.4825C102.636 29.4825 103.662 30.7337 103.662 32.6367C103.662 34.5571 102.636 35.7991 101.071 35.7991C99.5334 35.7991 98.4991 34.5307 98.4991 32.6367C98.4991 30.76 99.5334 29.4825 101.071 29.4825Z" fill="#F6F4FD"/>
<path d="M116.079 35.8621C114.308 35.8621 113.013 35.0226 112.864 33.7441L110.803 33.744C110.934 36.076 112.947 37.5512 115.93 37.5512C119.117 37.5512 121.122 36.0405 121.122 33.6284C121.122 31.7426 119.975 30.68 117.216 30.0544L115.734 29.7056C114.001 29.295 113.292 28.7586 113.292 27.8471C113.292 26.7034 114.401 25.9177 116.023 25.9177C117.644 25.9177 118.754 26.6943 118.875 27.981H120.907C120.841 25.7564 118.893 24.2285 116.051 24.2285C113.18 24.2285 111.158 25.7564 111.158 27.981C111.158 29.7776 112.304 30.8848 114.774 31.4566L116.517 31.8592C118.26 32.2698 118.996 32.869 118.996 33.8697C118.996 35.0226 117.775 35.8621 116.079 35.8621Z" fill="#F6F4FD"/>
<path d="M125.465 25.7122V27.9367H127.33V29.4646H125.465V34.6467C125.465 35.4518 125.839 35.8269 126.658 35.8269C126.88 35.8232 127.101 35.8083 127.32 35.7823V37.3011C126.952 37.3671 126.577 37.397 126.202 37.3903C124.217 37.3903 123.443 36.6755 123.443 34.8525V29.4646H122.017V27.9367H123.443V25.7122H125.465Z" fill="#F6F4FD"/>
<path fill-rule="evenodd" clip-rule="evenodd" d="M128.41 32.637C128.41 29.6795 130.227 27.821 133.06 27.821C135.903 27.821 137.712 29.6794 137.712 32.637C137.712 35.6027 135.913 37.4531 133.06 37.4531C130.209 37.4531 128.41 35.6027 128.41 32.637ZM135.661 32.6369C135.661 30.6081 134.691 29.4107 133.06 29.4107C131.429 29.4107 130.461 30.6172 130.461 32.6369C130.461 34.6738 131.429 35.8622 133.06 35.8622C134.691 35.8622 135.661 34.6738 135.661 32.6369Z" fill="#F6F4FD"/>
<path d="M139.371 27.9365H141.291V29.5364H141.337C141.605 28.5065 142.589 27.7976 143.696 27.8381C143.928 27.8374 144.159 27.8615 144.385 27.9101V29.7149C144.092 29.6291 143.787 29.5897 143.481 29.5983C142.889 29.5753 142.317 29.8014 141.913 30.2171C141.51 30.6329 141.317 31.1969 141.384 31.761V37.3364H139.371V27.9365Z" fill="#F6F4FD"/>
<path fill-rule="evenodd" clip-rule="evenodd" d="M153.665 34.5756C153.394 36.282 151.661 37.4531 149.443 37.4531C146.591 37.4531 144.82 35.621 144.82 32.6817C144.82 29.7332 146.6 27.821 149.358 27.821C152.071 27.821 153.777 29.6075 153.777 32.4576V33.1187H146.852V33.2353C146.787 33.9351 147.039 34.6278 147.544 35.1372C148.049 35.6466 148.757 35.9236 149.49 35.8978C150.466 35.9855 151.387 35.4478 151.754 34.5756H153.665ZM146.862 31.77H151.764C151.8 31.1412 151.561 30.5263 151.105 30.0734C150.648 29.6205 150.015 29.3708 149.359 29.3843C148.697 29.3805 148.06 29.6304 147.592 30.0784C147.123 30.5264 146.86 31.1354 146.862 31.77Z" fill="#F6F4FD"/>
<path d="M97.5078 14L96.4395 15.4768H97.3842L98.5802 14H97.5078Z" fill="#F6F4FD"/>
<path fill-rule="evenodd" clip-rule="evenodd" d="M94.9155 19.6114C94.9155 18.7699 95.5366 18.2847 96.6391 18.2158L97.8944 18.1428V17.7393C97.8944 17.2455 97.5708 16.9667 96.9457 16.9667C96.4351 16.9667 96.0814 17.1558 95.9799 17.4863H95.0944C95.1879 16.6833 95.9366 16.1682 96.9879 16.1682C98.1497 16.1682 98.805 16.7517 98.805 17.7393V20.9336H97.9246V20.2766H97.8522C97.5532 20.7564 97.0214 21.0368 96.4603 21.0106C96.0669 21.0519 95.6745 20.9234 95.3802 20.6568C95.0859 20.3902 94.9171 20.0105 94.9155 19.6114ZM97.8947 19.2121V18.8212L96.763 18.8942C96.1248 18.9373 95.8354 19.1563 95.8354 19.5685C95.8354 19.9893 96.1972 20.2341 96.6947 20.2341C96.9892 20.2642 97.2832 20.1724 97.5094 19.9797C97.7356 19.7871 97.8746 19.5101 97.8947 19.2121Z" fill="#F6F4FD"/>
<path fill-rule="evenodd" clip-rule="evenodd" d="M78.0246 15.5871C77.4649 14.9909 76.6696 14.6792 75.8576 14.738H73.6396V20.933H75.8576C77.6868 20.933 78.7471 19.7954 78.7471 17.8162C78.7471 16.9527 78.5843 16.1834 78.0246 15.5871ZM75.751 20.0578H74.5933V15.6143H75.751C76.3282 15.582 76.8895 15.8116 77.2814 16.2403C77.6733 16.669 77.7762 17.1738 77.7762 17.8297C77.7762 18.6738 77.682 18.9977 77.2891 19.4299C76.8963 19.8621 76.3313 20.0928 75.751 20.0578Z" fill="#F6F4FD"/>
<path fill-rule="evenodd" clip-rule="evenodd" d="M83.973 19.6714C83.7165 20.5532 82.8706 21.123 81.9649 21.0239C81.347 21.0404 80.7531 20.782 80.3409 20.3173C79.9287 19.8526 79.8242 19.1738 79.8242 18.6108C79.8242 18.1738 79.9302 17.3663 80.3401 16.8977C80.7501 16.4291 81.3414 16.163 81.9609 16.1683C83.2503 16.1683 84.0282 17.057 84.0282 18.5251V18.8471H80.7559V18.8988C80.727 19.2457 80.8444 19.5888 81.0794 19.8438C81.3144 20.0988 81.645 20.242 81.9901 20.2381C82.4375 20.2923 82.8731 20.0684 83.0926 19.6713L83.973 19.6714ZM80.7551 18.1638H83.0957C83.119 17.8465 83.0084 17.5341 82.7912 17.3034C82.574 17.0728 82.2703 16.9454 81.955 16.9527C81.6355 16.9487 81.3278 17.075 81.1019 17.303C80.876 17.531 80.7509 17.8414 80.7551 18.1638Z" fill="#F6F4FD"/>
<path d="M86.9499 16.1685C87.9921 16.1685 88.6735 16.6577 88.763 17.482H87.8856C87.8012 17.1387 87.4685 16.9197 86.9499 16.9197C86.4394 16.9197 86.0515 17.1641 86.0515 17.5291C86.0515 17.8084 86.2857 17.9844 86.7882 18.1004L87.558 18.2804C88.4394 18.4867 88.8524 18.869 88.8524 19.5559C88.8524 20.436 88.0394 21.0241 86.9328 21.0241C85.8303 21.0241 85.1117 20.5217 85.0303 19.6933H85.9459C86.1083 20.0991 86.5248 20.3401 86.9539 20.2768C87.5238 20.2768 87.9288 20.0193 87.9288 19.6456C87.9288 19.3668 87.7117 19.1863 87.2474 19.0748L86.4394 18.8857C85.558 18.6753 85.1499 18.2763 85.1499 17.5808C85.1499 16.7519 85.9027 16.1685 86.9499 16.1685Z" fill="#F6F4FD"/>
<path d="M92.0245 16.9926C92.5336 16.9483 92.9985 17.2855 93.119 17.7865H94.0084C93.8907 16.7941 93.0111 16.0766 92.0245 16.1683C91.4025 16.1458 90.8024 16.4012 90.3842 16.8662C89.966 17.3312 89.8547 18.1738 89.8547 18.5809C89.8547 19.1738 89.9598 19.8416 90.3791 20.3126C90.7984 20.7836 91.4023 21.0439 92.0295 21.0239C93.0082 21.1222 93.8861 20.4155 94.0084 19.4311H93.119C92.9985 19.9291 92.5293 20.2586 92.0245 20.1996C91.2627 20.1996 90.7904 19.5943 90.7904 18.5809C90.7904 17.5847 91.2587 16.9926 92.0245 16.9926Z" fill="#F6F4FD"/>
<path d="M101.118 16.2584H100.237V20.9336H101.152V18.1732C101.15 17.8643 101.277 17.5687 101.502 17.3594C101.727 17.1501 102.03 17.0465 102.335 17.0742C102.506 17.0751 102.678 17.0937 102.845 17.1299V16.2194C102.711 16.1919 102.574 16.179 102.437 16.1809C101.894 16.1439 101.388 16.4647 101.186 16.9753H101.118V16.2584Z" fill="#F6F4FD"/>
<path fill-rule="evenodd" clip-rule="evenodd" d="M104.622 21.4016H103.686C103.783 22.1959 104.532 22.7197 105.69 22.7196C107.001 22.7196 107.831 22.0413 107.831 20.9721V16.2585H106.954V17.0052H106.882C106.588 16.4778 106.026 16.1599 105.427 16.1809C104.243 16.1809 103.503 17.1168 103.503 18.5423C103.503 19.942 104.235 20.8647 105.418 20.8647C106.003 20.8949 106.555 20.5916 106.848 20.0794H106.916V20.9767C106.916 21.5947 106.465 21.9597 105.703 21.9597C105.086 21.9597 104.699 21.7407 104.622 21.4016ZM105.676 17.0089C106.455 17.0089 106.933 17.6056 106.933 18.5369C106.933 19.4733 106.46 20.0654 105.676 20.0654C104.889 20.0654 104.447 19.4687 104.447 18.5369C104.447 17.6056 104.889 17.0089 105.676 17.0089Z" fill="#F6F4FD"/>
<path fill-rule="evenodd" clip-rule="evenodd" d="M109.024 19.6117C109.024 18.7701 109.645 18.285 110.747 18.216L112.003 18.143V17.7395C112.003 17.2457 111.679 16.9669 111.054 16.9669C110.543 16.9669 110.19 17.156 110.088 17.4865H109.203C109.296 16.6835 110.045 16.1685 111.096 16.1685C112.258 16.1685 112.913 16.7519 112.913 17.7395V20.9338H112.033V20.2768H111.96C111.661 20.7566 111.13 21.037 110.568 21.0108C110.175 21.0521 109.783 20.9236 109.488 20.657C109.194 20.3904 109.025 20.0107 109.024 19.6117ZM112.003 19.2122V18.8213L110.871 18.8943C110.233 18.9374 109.943 19.1564 109.943 19.5685C109.943 19.9893 110.305 20.2342 110.803 20.2342C111.097 20.2643 111.391 20.1725 111.617 19.9798C111.844 19.7871 111.983 19.5101 112.003 19.2122Z" fill="#F6F4FD"/>
<path d="M114.388 14.4333H115.302V20.9336H114.388V14.4333Z" fill="#F6F4FD"/>
<path fill-rule="evenodd" clip-rule="evenodd" d="M116.573 18.5942C116.494 17.7562 116.892 16.9452 117.601 16.5014C118.31 16.0575 119.207 16.0575 119.916 16.5014C120.625 16.9452 121.023 17.7562 120.944 18.5942C121.025 19.433 120.627 20.2456 119.917 20.6904C119.208 21.1352 118.309 21.1352 117.6 20.6904C116.89 20.2456 116.492 19.433 116.573 18.5942ZM120.003 18.5933C120.003 17.5799 119.552 16.9873 118.76 16.9873C117.965 16.9873 117.517 17.5799 117.517 18.5933C117.517 19.6148 117.965 20.2029 118.76 20.2029C119.552 20.2029 120.003 19.6108 120.003 18.5933Z" fill="#F6F4FD"/>
<path fill-rule="evenodd" clip-rule="evenodd" d="M126.596 21.0239C127.502 21.123 128.348 20.5532 128.605 19.6714L127.724 19.6713C127.504 20.0684 127.069 20.2923 126.621 20.2381C126.276 20.242 125.946 20.0988 125.711 19.8438C125.476 19.5888 125.358 19.2457 125.387 18.8988V18.8471H128.66V18.5251C128.66 17.057 127.882 16.1683 126.592 16.1683C125.973 16.163 125.381 16.4291 124.971 16.8977C124.561 17.3663 124.456 18.1738 124.456 18.6108C124.456 19.1738 124.56 19.8526 124.972 20.3173C125.384 20.782 125.978 21.0404 126.596 21.0239ZM127.727 18.1638H125.387C125.382 17.8414 125.507 17.531 125.733 17.303C125.959 17.075 126.267 16.9487 126.586 16.9527C126.902 16.9454 127.205 17.0728 127.423 17.3034C127.64 17.5341 127.75 17.8465 127.727 18.1638Z" fill="#F6F4FD"/>
<path d="M130.769 16.2585H129.888V20.9336H130.803V18.1985C130.77 17.8874 130.874 17.5773 131.086 17.3496C131.299 17.1219 131.6 16.9992 131.909 17.0138C132.586 17.0138 132.909 17.3874 132.909 18.1387V20.9335H133.824V17.907C133.891 17.4499 133.748 16.9869 133.436 16.6486C133.124 16.3103 132.677 16.1336 132.22 16.1682C131.63 16.1198 131.075 16.4543 130.837 17.0011H130.769V16.2585Z" fill="#F6F4FD"/>
<path fill-rule="evenodd" clip-rule="evenodd" d="M139.663 21.0239C140.569 21.123 141.415 20.5532 141.671 19.6714L140.791 19.6713C140.571 20.0684 140.136 20.2923 139.688 20.2381C139.343 20.242 139.012 20.0988 138.777 19.8438C138.542 19.5888 138.425 19.2457 138.454 18.8988V18.8471H141.726V18.5251C141.726 17.057 140.948 16.1683 139.659 16.1683C139.039 16.163 138.448 16.4291 138.038 16.8977C137.628 17.3663 137.606 18.119 137.522 18.6108C137.522 19.1738 137.627 19.8526 138.039 20.3173C138.451 20.782 139.045 21.0404 139.663 21.0239ZM140.794 18.1638H138.453C138.449 17.8414 138.574 17.531 138.8 17.303C139.026 17.075 139.333 16.9487 139.653 16.9527C139.968 16.9454 140.272 17.0728 140.489 17.3034C140.706 17.5341 140.817 17.8465 140.794 18.1638Z" fill="#F6F4FD"/>
<path d="M143.911 14.4333H142.997V20.9336H143.911V14.4333Z" fill="#F6F4FD"/>
</svg>
