<svg width="35" height="35" viewBox="0 0 35 35" fill="none" xmlns="http://www.w3.org/2000/svg">
<g clip-path="url(#clip0_74_1202)">
<path d="M2.91665 13.1247H7.29165V30.6247H2.91665C2.52987 30.6247 2.15894 30.471 1.88545 30.1975C1.61196 29.924 1.45831 29.5531 1.45831 29.1663V14.583C1.45831 14.1962 1.61196 13.8253 1.88545 13.5518C2.15894 13.2783 2.52987 13.1247 2.91665 13.1247ZM10.6356 11.239L19.9689 1.90572C20.093 1.78131 20.2578 1.70588 20.433 1.69328C20.6082 1.68069 20.7821 1.73179 20.9227 1.83717L22.1666 2.77051C22.5121 3.02986 22.7731 3.38571 22.9166 3.79317C23.0601 4.20063 23.0798 4.64147 22.9731 5.06009L21.2916 11.6663H30.625C31.3985 11.6663 32.1404 11.9736 32.6874 12.5206C33.2344 13.0676 33.5416 13.8095 33.5416 14.583V17.6513C33.542 18.0325 33.4677 18.41 33.3229 18.7626L28.8094 29.722C28.6993 29.9892 28.5122 30.2176 28.2721 30.3783C28.0319 30.5391 27.7494 30.6248 27.4604 30.6247H11.6666C11.2799 30.6247 10.9089 30.471 10.6355 30.1975C10.362 29.924 10.2083 29.5531 10.2083 29.1663V12.2701C10.2084 11.8833 10.3621 11.5125 10.6356 11.239Z" fill="white"/>
</g>
<defs>
<clipPath id="clip0_74_1202">
<rect width="35" height="35" fill="white"/>
</clipPath>
</defs>
</svg>
