<svg width="102" height="94" viewBox="0 0 102 94" fill="none" xmlns="http://www.w3.org/2000/svg">
<path d="M39.9904 59.9944V46.9142V33.8341C39.9904 32.8458 40.5119 31.9156 41.3811 31.4506C42.2503 30.9274 43.2933 30.9274 44.1625 31.4506L55.4618 37.9616L66.7032 44.4726C67.6303 44.9958 68.0939 45.8678 68.0939 46.9142C68.0939 47.9606 67.6303 48.8327 66.7032 49.3559L55.4618 55.8669L44.1625 62.3779C43.2933 62.9011 42.2503 62.9011 41.3811 62.3779C40.5119 61.8547 39.9904 60.9827 39.9904 59.9944ZM51.1738 0C19.246 0 0.124023 13.3127 0.124023 46.9142C0.124023 80.5158 19.246 93.8285 51.1738 93.8285C79.3932 93.8285 99.0946 83.4225 101.876 54.4135H76.38C75.9165 58.4248 74.9314 62.9011 72.208 65.5172C67.2826 70.2842 57.2001 71.098 51.1738 71.098C45.1475 71.098 35.065 70.2842 30.1397 65.5172C25.9097 61.3896 25.62 52.7276 25.62 46.9142C25.62 41.0427 25.9097 32.4388 30.1397 28.3113C35.065 23.5443 45.1475 22.7304 51.1738 22.7304C57.2001 22.7304 67.2826 23.5443 72.208 28.3113C74.9314 30.9274 75.9165 35.4037 76.38 39.4149H101.876C99.0946 10.406 79.3932 0 51.1738 0Z" fill="white"/>
</svg>
