<svg width="54" height="54" viewBox="0 0 54 54" fill="none" xmlns="http://www.w3.org/2000/svg">
<path d="M52.7143 49.8571H50.1429V25.4286C50.1429 25.0876 50.0074 24.7606 49.7663 24.5194C49.5252 24.2783 49.1981 24.1429 48.8571 24.1429H37.2857V2.28571C37.2857 1.94472 37.1503 1.6177 36.9091 1.37658C36.668 1.13546 36.341 1 36 1H5.14286C4.80186 1 4.47484 1.13546 4.23372 1.37658C3.9926 1.6177 3.85714 1.94472 3.85714 2.28571V49.8571H1.28571C0.944722 49.8571 0.617695 49.9926 0.376577 50.2337C0.135459 50.4748 0 50.8019 0 51.1429C0 51.4838 0.135459 51.8109 0.376577 52.052C0.617695 52.2931 0.944722 52.4286 1.28571 52.4286H52.7143C53.0553 52.4286 53.3823 52.2931 53.6234 52.052C53.8645 51.8109 54 51.4838 54 51.1429C54 50.8019 53.8645 50.4748 53.6234 50.2337C53.3823 49.9926 53.0553 49.8571 52.7143 49.8571ZM16.7143 49.8571V39.5714H24.4286V49.8571H16.7143ZM27 49.8571V39.5714C27 38.8894 26.7291 38.2354 26.2468 37.7532C25.7646 37.2709 25.1106 37 24.4286 37H16.7143C16.0323 37 15.3782 37.2709 14.896 37.7532C14.4138 38.2354 14.1429 38.8894 14.1429 39.5714V49.8571H6.42857V3.57143H34.7143V49.8571H27ZM37.2857 49.8571V26.7143H47.5714V49.8571H37.2857ZM18 30.5714C18 30.9124 17.8645 31.2394 17.6234 31.4806C17.3823 31.7217 17.0553 31.8571 16.7143 31.8571H12.8571C12.5162 31.8571 12.1891 31.7217 11.948 31.4806C11.7069 31.2394 11.5714 30.9124 11.5714 30.5714C11.5714 30.2304 11.7069 29.9034 11.948 29.6623C12.1891 29.4212 12.5162 29.2857 12.8571 29.2857H16.7143C17.0553 29.2857 17.3823 29.4212 17.6234 29.6623C17.8645 29.9034 18 30.2304 18 30.5714ZM29.5714 30.5714C29.5714 30.9124 29.436 31.2394 29.1949 31.4806C28.9537 31.7217 28.6267 31.8571 28.2857 31.8571H24.4286C24.0876 31.8571 23.7606 31.7217 23.5194 31.4806C23.2783 31.2394 23.1429 30.9124 23.1429 30.5714C23.1429 30.2304 23.2783 29.9034 23.5194 29.6623C23.7606 29.4212 24.0876 29.2857 24.4286 29.2857H28.2857C28.6267 29.2857 28.9537 29.4212 29.1949 29.6623C29.436 29.9034 29.5714 30.2304 29.5714 30.5714ZM18 24.1429C18 24.4838 17.8645 24.8109 17.6234 25.052C17.3823 25.2931 17.0553 25.4286 16.7143 25.4286H12.8571C12.5162 25.4286 12.1891 25.2931 11.948 25.052C11.7069 24.8109 11.5714 24.4838 11.5714 24.1429C11.5714 23.8019 11.7069 23.4748 11.948 23.2337C12.1891 22.9926 12.5162 22.8571 12.8571 22.8571H16.7143C17.0553 22.8571 17.3823 22.9926 17.6234 23.2337C17.8645 23.4748 18 23.8019 18 24.1429ZM29.5714 24.1429C29.5714 24.4838 29.436 24.8109 29.1949 25.052C28.9537 25.2931 28.6267 25.4286 28.2857 25.4286H24.4286C24.0876 25.4286 23.7606 25.2931 23.5194 25.052C23.2783 24.8109 23.1429 24.4838 23.1429 24.1429C23.1429 23.8019 23.2783 23.4748 23.5194 23.2337C23.7606 22.9926 24.0876 22.8571 24.4286 22.8571H28.2857C28.6267 22.8571 28.9537 22.9926 29.1949 23.2337C29.436 23.4748 29.5714 23.8019 29.5714 24.1429ZM18 11.2857C18 11.6267 17.8645 11.9537 17.6234 12.1949C17.3823 12.436 17.0553 12.5714 16.7143 12.5714H12.8571C12.5162 12.5714 12.1891 12.436 11.948 12.1949C11.7069 11.9537 11.5714 11.6267 11.5714 11.2857C11.5714 10.9447 11.7069 10.6177 11.948 10.3766C12.1891 10.1355 12.5162 10 12.8571 10H16.7143C17.0553 10 17.3823 10.1355 17.6234 10.3766C17.8645 10.6177 18 10.9447 18 11.2857ZM29.5714 11.2857C29.5714 11.6267 29.436 11.9537 29.1949 12.1949C28.9537 12.436 28.6267 12.5714 28.2857 12.5714H24.4286C24.0876 12.5714 23.7606 12.436 23.5194 12.1949C23.2783 11.9537 23.1429 11.6267 23.1429 11.2857C23.1429 10.9447 23.2783 10.6177 23.5194 10.3766C23.7606 10.1355 24.0876 10 24.4286 10H28.2857C28.6267 10 28.9537 10.1355 29.1949 10.3766C29.436 10.6177 29.5714 10.9447 29.5714 11.2857ZM18 17.7143C18 18.0553 17.8645 18.3823 17.6234 18.6234C17.3823 18.8645 17.0553 19 16.7143 19H12.8571C12.5162 19 12.1891 18.8645 11.948 18.6234C11.7069 18.3823 11.5714 18.0553 11.5714 17.7143C11.5714 17.3733 11.7069 17.0463 11.948 16.8051C12.1891 16.564 12.5162 16.4286 12.8571 16.4286H16.7143C17.0553 16.4286 17.3823 16.564 17.6234 16.8051C17.8645 17.0463 18 17.3733 18 17.7143ZM29.5714 17.7143C29.5714 18.0553 29.436 18.3823 29.1949 18.6234C28.9537 18.8645 28.6267 19 28.2857 19H24.4286C24.0876 19 23.7606 18.8645 23.5194 18.6234C23.2783 18.3823 23.1429 18.0553 23.1429 17.7143C23.1429 17.3733 23.2783 17.0463 23.5194 16.8051C23.7606 16.564 24.0876 16.4286 24.4286 16.4286H28.2857C28.6267 16.4286 28.9537 16.564 29.1949 16.8051C29.436 17.0463 29.5714 17.3733 29.5714 17.7143ZM43.7143 31.5357V45.0357C43.7143 45.3767 43.5788 45.7037 43.3377 45.9449C43.0966 46.186 42.7696 46.3214 42.4286 46.3214C42.0876 46.3214 41.7606 46.186 41.5194 45.9449C41.2783 45.7037 41.1429 45.3767 41.1429 45.0357V31.5357C41.1429 31.1947 41.2783 30.8677 41.5194 30.6266C41.7606 30.3855 42.0876 30.25 42.4286 30.25C42.7696 30.25 43.0966 30.3855 43.3377 30.6266C43.5788 30.8677 43.7143 31.1947 43.7143 31.5357Z" fill="white"/>
</svg>
