<svg width="54" height="54" viewBox="0 0 54 54" fill="none" xmlns="http://www.w3.org/2000/svg">
<path d="M52.3125 0H24.657L14.2383 10.4187V19.1953C9.00439 19.1953 4.74609 23.4536 4.74609 28.6875C4.74609 33.9214 9.00439 38.1797 14.2383 38.1797C19.4722 38.1797 23.7305 33.9214 23.7305 28.6875C23.7305 24.5627 21.0855 21.0443 17.4023 19.7383V12.6562H26.8945V3.16406H49.1484V44.5078H25.1955C23.0041 40.7278 18.9131 38.1797 14.2383 38.1797C7.25963 38.1797 1.58203 43.8573 1.58203 50.8359V54H26.8945V50.8359C26.8945 49.7438 26.7553 48.6837 26.4941 47.6719H52.3125V0ZM20.5664 28.6875C20.5664 32.177 17.7278 35.0156 14.2383 35.0156C10.7487 35.0156 7.91016 32.177 7.91016 28.6875C7.91016 25.198 10.7487 22.3594 14.2383 22.3594C17.7278 22.3594 20.5664 25.198 20.5664 28.6875ZM19.6398 9.49219L23.7305 5.40157V9.49219H19.6398ZM4.74609 50.8359C4.74609 45.6021 9.00439 41.3438 14.2383 41.3438C19.4722 41.3438 23.7305 45.6021 23.7305 50.8359H4.74609Z" fill="white"/>
<path d="M37.9688 22.3594C37.0966 22.3594 36.3867 21.6495 36.3867 20.7773H33.2227C33.2227 22.8398 34.5451 24.5981 36.3867 25.2515V28.6875H39.5508V25.2515C41.3924 24.5981 42.7148 22.8398 42.7148 20.7773C42.7148 19.5167 42.2299 18.3149 41.3495 17.3941C40.4444 16.4474 39.2439 15.9258 37.9688 15.9258C37.1258 15.9258 36.3867 15.1372 36.3867 14.2383C36.3867 13.3661 37.0966 12.6562 37.9688 12.6562C38.8409 12.6562 39.5508 13.3661 39.5508 14.2383H42.7148C42.7148 12.1759 41.3924 10.4175 39.5508 9.7641V6.32812H36.3867V9.7641C34.5451 10.4175 33.2227 12.1759 33.2227 14.2383C33.2227 15.499 33.7076 16.7007 34.588 17.6215C35.4931 18.5683 36.6936 19.0898 37.9688 19.0898C38.8117 19.0898 39.5508 19.8784 39.5508 20.7773C39.5508 21.6495 38.8409 22.3594 37.9688 22.3594Z" fill="white"/>
<path d="M26.8945 38.1797H45.9844V41.3438H26.8945V38.1797Z" fill="white"/>
<path d="M26.8945 31.8516H45.9844V35.0156H26.8945V31.8516Z" fill="white"/>
</svg>
