<svg width="55" height="55" viewBox="0 0 55 55" fill="none" xmlns="http://www.w3.org/2000/svg">
<path d="M50 4H5C2.25 4 0 6.25 0 9V43C0 45.75 2.25 48 5 48H16.5V49.5C16.5 50.875 17.625 52 19 52H36C37.375 52 38.5 50.875 38.5 49.5V48H50C52.75 48 54.975 45.75 54.975 43L55 9C55 6.225 52.75 4 50 4ZM47.5 43H7.5C6.125 43 5 41.875 5 40.5V11.5C5 10.125 6.125 9 7.5 9H47.5C48.875 9 50 10.125 50 11.5V40.5C50 41.875 48.875 43 47.5 43ZM34.7 28.175L24.75 33.875C23.075 34.825 21 33.6 21 31.7V20.3C21 18.375 23.075 17.175 24.75 18.125L34.7 23.825C36.375 24.8 36.375 27.2 34.7 28.175Z" fill="white"/>
</svg>
