<svg width="55" height="55" viewBox="0 0 55 55" fill="none" xmlns="http://www.w3.org/2000/svg">
<g clip-path="url(#clip0_74_797)">
<path d="M54.9995 51.7612L40.6491 37.4107C44.3768 32.8517 46.2095 27.0343 45.7683 21.1618C45.3271 15.2894 42.6456 9.81112 38.2785 5.86027C33.9115 1.90941 28.1929 -0.211796 22.3058 -0.0645985C16.4186 0.0825994 10.8132 2.48694 6.64903 6.65111C2.48487 10.8153 0.0805242 16.4207 -0.0666737 22.3078C-0.213872 28.195 1.90734 33.9136 5.85819 38.2806C9.80905 42.6477 15.2873 45.3292 21.1597 45.7704C27.0322 46.2116 32.8496 44.3788 37.4087 40.6512L51.7591 55.0016L54.9995 51.7612ZM22.9162 41.2516C19.2902 41.2516 15.7456 40.1763 12.7307 38.1618C9.71581 36.1474 7.36598 33.2841 5.97837 29.9341C4.59077 26.5841 4.22771 22.8979 4.9351 19.3416C5.6425 15.7853 7.38858 12.5186 9.95254 9.95462C12.5165 7.39065 15.7832 5.64457 19.3395 4.93718C22.8958 4.22978 26.582 4.59284 29.932 5.98045C33.282 7.36806 36.1453 9.71789 38.1598 12.7328C40.1743 15.7477 41.2495 19.2922 41.2495 22.9182C41.244 27.7789 39.3107 32.4389 35.8738 35.8758C32.4368 39.3128 27.7768 41.2461 22.9162 41.2516Z" fill="white"/>
</g>
<defs>
<clipPath id="clip0_74_797">
<rect width="55" height="55" fill="white"/>
</clipPath>
</defs>
</svg>
