<svg width="246" height="36" viewBox="0 0 246 36" fill="none" xmlns="http://www.w3.org/2000/svg">
<path fill-rule="evenodd" clip-rule="evenodd" d="M15.8307 22.2962V17.7357V13.1751C15.8307 12.8217 16.0181 12.5113 16.3306 12.3303C16.652 12.1492 17.027 12.1492 17.3484 12.3303L21.4286 14.6149L25.5177 16.8908C25.8391 17.0719 26.0266 17.3736 26.0266 17.7357C26.0266 18.0892 25.8391 18.3995 25.5177 18.5806L21.4286 20.8565L17.3484 23.1411C17.027 23.3135 16.652 23.3135 16.3306 23.1411C16.0181 22.9601 15.8307 22.6497 15.8307 22.2962ZM19.884 1.36426C8.31316 1.36426 1.36707 6.01102 1.36707 17.7357C1.36707 29.4604 8.31316 34.1071 19.884 34.1071C30.1246 34.1071 37.2493 30.469 38.2671 20.3393H29.0086C28.8479 21.7617 28.4908 23.3049 27.5087 24.2187C25.723 25.8912 22.0714 26.1671 19.884 26.1671C17.6877 26.1671 14.0361 25.8912 12.2505 24.2187C10.7238 22.7876 10.6166 19.7703 10.6166 17.7357C10.6166 15.6925 10.7238 12.6751 12.2505 11.2526C14.0361 9.58015 17.6877 9.30427 19.884 9.30427C22.0714 9.30427 25.723 9.58015 27.5087 11.2526C28.4908 12.1665 28.8479 13.7096 29.0086 15.1235H38.2671C37.2493 4.99373 30.1246 1.36426 19.884 1.36426Z" fill="#F6F4FD"/>
<path d="M217.115 13.8335L221.975 23.8575L226.131 13.8335H227.702L222.575 25.7309C222.194 26.6273 221.721 27.8573 220.902 28.4895C220.094 29.1333 218.858 29.2256 217.865 29.2256H216.457V27.9729H218.057C218.362 27.9676 218.85 27.932 219.344 27.7422C220.44 27.3628 220.81 26.5129 221.214 25.4901L215.384 13.8335H217.115Z" fill="#F6F4FD"/>
<path fill-rule="evenodd" clip-rule="evenodd" d="M173.881 10.0529V24.8807H172.438V23.2029C172.173 23.5017 171.976 23.6962 171.664 23.949C171.006 24.4548 169.598 25.2029 167.486 25.203C165.373 25.203 163.041 24.3516 161.817 22.4895C161.459 21.9722 160.894 20.8804 160.894 19.2944C160.917 15.5126 164.184 13.5012 167.578 13.5012C168.12 13.5012 169.887 13.5462 171.376 14.5232C172.011 14.9485 172.253 15.3167 172.438 15.6041V10.0529H173.881ZM167.335 14.7539C167 14.7769 166.296 14.8453 165.465 15.1326C162.844 16.0982 162.522 18.3289 162.522 19.3634C162.522 19.674 162.568 20.5707 163.006 21.4211C164.207 23.8571 167.023 23.9264 167.681 23.9265C169.113 23.9265 170.833 23.4325 171.711 22.1797C172.461 21.0992 172.438 19.5584 172.438 19.248C172.438 18.3515 172.253 17.3748 171.756 16.6047C171.548 16.2944 171.33 16.1211 171.226 16.0292C169.794 14.7534 167.878 14.7309 167.335 14.7539Z" fill="#F6F4FD"/>
<path fill-rule="evenodd" clip-rule="evenodd" d="M123.328 13.5238C125.994 13.5238 127.703 14.0644 128.5 14.9495C129.135 15.6965 129.226 16.5011 129.226 17.3859V24.8807H127.876V23.2719C127.53 23.5477 127.09 23.8573 126.698 24.0757C125.925 24.501 124.389 25.1791 122.115 25.1791C120.603 25.1791 118.998 24.9955 117.982 23.7196C117.301 22.8921 117.255 21.9498 117.255 21.5703C117.255 20.5013 117.763 19.4662 118.629 18.8455C120.188 17.7537 123.478 17.6852 127.876 17.6392C127.876 17.053 127.853 16.4775 127.506 15.9602C126.952 15.2019 125.417 14.8693 123.397 14.8693C121.816 14.8693 120.822 15.0413 120.21 15.3746C119.991 15.4896 119.748 15.6968 119.552 15.915C119.218 16.2713 119.091 16.674 118.929 17.1452L117.394 17.0524C117.544 16.4774 117.879 15.1095 119.368 14.305C120.845 13.5004 123.004 13.5238 123.328 13.5238ZM127.876 18.8919C124.956 18.9149 123.374 18.9837 122.012 19.1791C120.407 19.4319 119.633 19.8111 119.148 20.5007C119.044 20.6845 118.825 21.064 118.825 21.6155C118.825 21.8454 118.882 22.5131 119.39 23.0073C120.314 23.8576 122.16 23.8575 122.3 23.8575C122.912 23.8575 124.62 23.765 126.225 22.8456C126.478 22.7191 127.114 22.3515 127.483 21.6618C127.76 21.1791 127.853 20.5468 127.876 19.9377V18.8919Z" fill="#F6F4FD"/>
<path fill-rule="evenodd" clip-rule="evenodd" d="M152.374 13.5238C155.029 13.5239 156.749 14.0645 157.534 14.9495C158.18 15.6966 158.261 16.5009 158.261 17.3859V24.8807H156.922V23.2719C156.576 23.5478 156.137 23.8573 155.733 24.0757C154.971 24.501 153.424 25.1791 151.162 25.1791C149.649 25.1791 148.045 24.9954 147.029 23.7196C146.348 22.8921 146.301 21.9498 146.301 21.5703C146.301 20.5013 146.81 19.4662 147.664 18.8455C149.234 17.7538 152.524 17.6852 156.922 17.6392C156.922 17.053 156.899 16.4775 156.552 15.9602C155.998 15.2018 154.462 14.8693 152.442 14.8693C150.849 14.8693 149.868 15.0413 149.245 15.3746C149.025 15.4896 148.783 15.6967 148.587 15.915C148.264 16.2713 148.125 16.674 147.974 17.1452L146.44 17.0524C146.59 16.4774 146.925 15.1094 148.414 14.305C149.892 13.5005 152.039 13.5238 152.374 13.5238ZM156.922 18.8919C154.002 18.9149 152.419 18.9836 151.057 19.1791C149.453 19.4319 148.679 19.8112 148.194 20.5007C148.09 20.6845 147.86 21.064 147.86 21.6155C147.86 21.8454 147.929 22.5131 148.437 23.0073C149.36 23.8578 151.208 23.8575 151.335 23.8575C151.958 23.8575 153.666 23.765 155.271 22.8456C155.513 22.7191 156.149 22.3515 156.53 21.6618C156.795 21.1791 156.899 20.5468 156.922 19.9377V18.8919Z" fill="#F6F4FD"/>
<path fill-rule="evenodd" clip-rule="evenodd" d="M182.586 13.4774C183.394 13.4774 185.726 13.6165 187.435 15.421C187.689 15.6971 188.207 16.2722 188.565 17.1452C188.83 17.7543 188.946 18.2828 189.038 19.5126H177.806C177.887 21.0988 178.638 22.2593 179.723 22.9835C181.397 24.0984 183.694 24.1446 185.448 23.1102C186.083 22.7309 186.615 22.2141 186.973 21.559H188.634C188.242 22.5472 187.55 23.3976 186.638 24.0067C184.364 25.57 181.027 25.547 178.787 24.0067C177.206 22.9377 176.259 21.1216 176.293 19.1101C176.316 17.593 176.94 16.0526 178.094 15.0411C178.741 14.4663 180.288 13.4774 182.586 13.4774ZM182.447 14.7313C181.223 14.7313 180.161 15.0176 179.225 15.8912C178.671 16.4085 178.371 16.9263 178.233 17.1677C178.094 17.455 177.991 17.6853 177.864 18.2599H187.296C187.077 17.0762 186.476 16.2026 185.495 15.5589C184.929 15.2026 184.04 14.7313 182.447 14.7313Z" fill="#F6F4FD"/>
<path d="M132.598 15.49C135.172 12.6967 140.656 12.6967 143.23 15.49C143.738 16.0301 144.062 16.605 144.269 17.1452H142.526C142.479 17.0647 142.434 16.9832 142.399 16.9257C141.984 16.2016 141.083 15.1098 139.074 14.7765C138.255 14.627 137.573 14.627 136.753 14.7765C134.745 15.1098 133.844 16.2016 133.429 16.9257C133.186 17.305 132.794 18.1329 132.793 19.2706C132.793 19.6729 132.84 20.5468 133.336 21.4662C135.045 24.5927 140.644 24.6277 142.433 21.559H144.258C143.415 23.6509 141.487 24.5018 140.575 24.7892C139.074 25.2488 136.754 25.2488 135.253 24.7892C134.064 24.4099 131.166 23.099 131.166 19.2944C131.166 18.6048 131.247 16.9497 132.598 15.49Z" fill="#F6F4FD"/>
<path d="M197.675 13.5238C198.183 13.5238 200.329 13.5932 201.876 14.8454C202.338 15.2248 202.615 15.6273 202.731 15.7997C202.95 15.4894 203.123 15.2707 203.701 14.8454C204.462 14.2822 205.813 13.5702 208.076 13.5702C208.538 13.5702 210.466 13.6165 211.967 14.5934C212.313 14.8236 213.214 15.4667 213.664 16.6499C213.883 17.2361 213.894 17.7308 213.894 18.3515V24.8807H212.474V18.7076C212.474 18.4658 212.474 17.7072 212.14 16.9834C211.193 14.926 208.272 14.9495 207.937 14.9495C207.682 14.9495 204.82 14.9495 203.781 16.7652C203.481 17.2823 203.411 17.7535 203.411 18.3051V24.8807H201.957V18.7765C201.957 17.8345 201.853 17.4782 201.68 17.0072C200.999 15.3405 199.082 14.9495 197.547 14.9495C196.092 14.9495 194.049 15.3975 193.23 16.8342C192.987 17.2595 192.906 17.5239 192.906 18.4204V24.8807H191.429V13.8335H192.906V15.248C193.149 15.0411 193.391 14.8224 193.656 14.6385C195.169 13.5465 197.167 13.5238 197.675 13.5238Z" fill="#F6F4FD"/>
<path fill-rule="evenodd" clip-rule="evenodd" d="M87.7096 12.9517C88.1263 12.9517 90.2036 12.9523 91.8654 13.274C92.1659 13.3315 93.5281 13.5382 94.3707 14.4C95.3865 15.4114 95.3052 16.6991 95.3052 17.1361V24.7576H90.6304C90.5034 24.2404 90.4796 24.1942 90.4334 23.6541C89.6596 23.9991 87.4084 25.0798 84.7535 25.0798C81.0248 25.0797 79.7087 23.1822 79.7087 21.4121C79.7087 21.1359 79.7552 20.2401 80.2971 19.5048C80.9432 18.5973 82.1548 18.2174 82.4098 18.1481C84.3838 17.5733 88.3322 17.5155 90.3526 17.481C90.3525 16.0329 89.1408 15.6992 87.8826 15.6991C86.4973 15.6991 85.4691 15.9068 85.0881 16.8954H80.1822C80.2977 16.2747 80.552 14.7 82.1913 13.8608C83.2072 13.3436 85.0314 12.9517 87.7096 12.9517ZM90.4107 19.2979C89.5218 19.3209 87.4092 19.3086 86.1046 19.6189C84.4768 19.9868 84.2925 21.9531 86.0819 22.1945C87.6635 22.4127 90.4103 21.8145 90.4107 19.2979Z" fill="#F6F4FD"/>
<path fill-rule="evenodd" clip-rule="evenodd" d="M52.0591 13.0445C52.5208 13.0445 53.7917 13.0441 55.1655 13.343C55.7776 13.4695 57.6358 13.9065 58.9285 15.5612C59.3557 16.1014 60.06 17.2174 60.06 19.0221C60.0597 22.3206 57.7854 23.6773 56.9081 24.1256C56.1114 24.5164 54.5639 25.056 52.3823 25.056C49.7046 25.0559 47.9848 24.2977 47.0497 23.6541C46.8303 23.5047 46.2411 23.1018 45.7793 22.4466C45.3637 21.9062 44.7174 20.8144 44.7173 19.0446C44.7173 16.4008 46.1604 15.0669 46.9107 14.5267C47.7881 13.883 49.5082 13.0791 52.0591 13.0445ZM52.3823 16.1593C50.2816 16.1594 49.0928 16.7344 49.0928 19.0446C49.0929 21.3662 50.2816 21.9411 52.3823 21.9412C54.4834 21.9412 55.6844 21.3665 55.6845 19.0446C55.6845 16.7342 54.4834 16.1593 52.3823 16.1593Z" fill="#F6F4FD"/>
<path fill-rule="evenodd" clip-rule="evenodd" d="M67.1719 9.5498L67.1946 14.3311C68.6492 13.3312 70.3812 12.9981 72.2167 12.9981C75.8415 12.9983 78.2312 15.3091 78.2312 18.9644C78.2311 22.7459 75.5527 24.9532 71.8239 24.9532C69.7344 24.9532 67.9335 24.1939 67.1946 23.7456V24.7576H62.069V9.5498H67.1719ZM70.1495 16.3436C68.2218 16.3437 67.1252 16.8838 67.1252 19.0446C67.1252 21.2169 68.2219 21.7568 70.1495 21.7569C72.0659 21.7569 73.1624 21.217 73.1625 19.0446C73.1625 16.8836 72.0659 16.3436 70.1495 16.3436Z" fill="#F6F4FD"/>
<path d="M107.913 13.1248C109.182 13.1248 110.29 13.2511 111.387 13.906C111.525 13.975 111.93 14.2282 112.253 14.5731C112.668 14.9983 112.9 15.5154 112.969 15.6878C113.246 16.4235 113.292 17.194 113.292 18.7688V24.7576H108.166V19.1136C108.166 18.9872 108.154 18.4463 107.992 17.975C107.484 16.4932 106.043 16.3776 105.569 16.3775C103.803 16.3775 103.224 17.608 103.04 18.2747C102.947 18.6422 102.936 18.8611 102.936 19.2402V24.7576H97.7878V13.343H102.936V14.78C103.236 14.5731 103.536 14.3543 103.836 14.1819C105.614 13.1473 107.081 13.1248 107.913 13.1248Z" fill="#F6F4FD"/>
</svg>
