<svg width="246" height="36" viewBox="0 0 246 36" fill="none" xmlns="http://www.w3.org/2000/svg">
<path fill-rule="evenodd" clip-rule="evenodd" d="M15.8307 22.2962V17.7357V13.1751C15.8307 12.8217 16.0181 12.5113 16.3306 12.3303C16.652 12.1492 17.027 12.1492 17.3484 12.3303L21.4286 14.6149L25.5177 16.8908C25.8391 17.0719 26.0266 17.3736 26.0266 17.7357C26.0266 18.0892 25.8391 18.3995 25.5177 18.5806L21.4286 20.8565L17.3484 23.1411C17.027 23.3135 16.652 23.3135 16.3306 23.1411C16.0181 22.9601 15.8307 22.6497 15.8307 22.2962ZM19.884 1.36426C8.31316 1.36426 1.36707 6.01102 1.36707 17.7357C1.36707 29.4604 8.31316 34.1071 19.884 34.1071C30.1246 34.1071 37.2493 30.469 38.2671 20.3393H29.0086C28.8479 21.7617 28.4908 23.3049 27.5087 24.2187C25.723 25.8912 22.0714 26.1671 19.884 26.1671C17.6877 26.1671 14.0361 25.8912 12.2505 24.2187C10.7238 22.7876 10.6166 19.7703 10.6166 17.7357C10.6166 15.6925 10.7238 12.6751 12.2505 11.2526C14.0361 9.58015 17.6877 9.30427 19.884 9.30427C22.0714 9.30427 25.723 9.58015 27.5087 11.2526C28.4908 12.1665 28.8479 13.7096 29.0086 15.1235H38.2671C37.2493 4.99373 30.1246 1.36426 19.884 1.36426Z" fill="#F6F4FD"/>
<path d="M235.115 13.8335L239.975 23.8575L244.131 13.8335H245.702L240.575 25.7309C240.194 26.6273 239.721 27.8573 238.902 28.4895C238.094 29.1333 236.858 29.2256 235.865 29.2256H234.457V27.9729H236.057C236.362 27.9676 236.85 27.932 237.344 27.7422C238.44 27.3628 238.81 26.5129 239.214 25.4901L233.384 13.8335H235.115Z" fill="#F6F4FD"/>
<path fill-rule="evenodd" clip-rule="evenodd" d="M191.881 10.0529V24.8807H190.438V23.2029C190.173 23.5017 189.976 23.6962 189.664 23.949C189.006 24.4548 187.598 25.2029 185.486 25.203C183.373 25.203 181.041 24.3516 179.817 22.4895C179.459 21.9722 178.894 20.8804 178.894 19.2944C178.917 15.5126 182.184 13.5012 185.578 13.5012C186.12 13.5012 187.887 13.5462 189.376 14.5232C190.011 14.9485 190.253 15.3167 190.438 15.6041V10.0529H191.881ZM185.335 14.7539C185 14.7769 184.296 14.8453 183.465 15.1326C180.844 16.0982 180.522 18.3289 180.522 19.3634C180.522 19.674 180.568 20.5707 181.006 21.4211C182.207 23.8571 185.023 23.9264 185.681 23.9265C187.113 23.9265 188.833 23.4325 189.711 22.1797C190.461 21.0992 190.438 19.5584 190.438 19.248C190.438 18.3515 190.253 17.3748 189.756 16.6047C189.548 16.2944 189.33 16.1211 189.226 16.0292C187.794 14.7534 185.878 14.7309 185.335 14.7539Z" fill="#F6F4FD"/>
<path fill-rule="evenodd" clip-rule="evenodd" d="M141.328 13.5238C143.994 13.5238 145.703 14.0644 146.5 14.9495C147.135 15.6965 147.226 16.5011 147.226 17.3859V24.8807H145.876V23.2719C145.53 23.5477 145.09 23.8573 144.698 24.0757C143.925 24.501 142.389 25.1791 140.115 25.1791C138.603 25.1791 136.998 24.9955 135.982 23.7196C135.301 22.8921 135.255 21.9498 135.255 21.5703C135.255 20.5013 135.763 19.4662 136.629 18.8455C138.188 17.7537 141.478 17.6852 145.876 17.6392C145.876 17.053 145.853 16.4775 145.506 15.9602C144.952 15.2019 143.417 14.8693 141.397 14.8693C139.816 14.8693 138.822 15.0413 138.21 15.3746C137.991 15.4896 137.748 15.6968 137.552 15.915C137.218 16.2713 137.091 16.674 136.929 17.1452L135.394 17.0524C135.544 16.4774 135.879 15.1095 137.368 14.305C138.845 13.5004 141.004 13.5238 141.328 13.5238ZM145.876 18.8919C142.956 18.9149 141.374 18.9837 140.012 19.1791C138.407 19.4319 137.633 19.8111 137.148 20.5007C137.044 20.6845 136.825 21.064 136.825 21.6155C136.825 21.8454 136.882 22.5131 137.39 23.0073C138.314 23.8576 140.16 23.8575 140.3 23.8575C140.912 23.8575 142.62 23.765 144.224 22.8456C144.478 22.7191 145.114 22.3515 145.483 21.6618C145.76 21.1791 145.853 20.5468 145.876 19.9377V18.8919Z" fill="#F6F4FD"/>
<path fill-rule="evenodd" clip-rule="evenodd" d="M170.374 13.5238C173.029 13.5239 174.749 14.0645 175.534 14.9495C176.18 15.6966 176.261 16.5009 176.261 17.3859V24.8807H174.922V23.2719C174.576 23.5478 174.137 23.8573 173.733 24.0757C172.971 24.501 171.424 25.1791 169.162 25.1791C167.649 25.1791 166.045 24.9954 165.029 23.7196C164.348 22.8921 164.301 21.9498 164.301 21.5703C164.301 20.5013 164.81 19.4662 165.664 18.8455C167.234 17.7538 170.524 17.6852 174.922 17.6392C174.922 17.053 174.899 16.4775 174.552 15.9602C173.998 15.2018 172.462 14.8693 170.442 14.8693C168.849 14.8693 167.868 15.0413 167.245 15.3746C167.025 15.4896 166.783 15.6967 166.587 15.915C166.264 16.2713 166.125 16.674 165.974 17.1452L164.44 17.0524C164.59 16.4774 164.925 15.1094 166.414 14.305C167.892 13.5005 170.039 13.5238 170.374 13.5238ZM174.922 18.8919C172.002 18.9149 170.419 18.9836 169.057 19.1791C167.453 19.4319 166.679 19.8112 166.194 20.5007C166.09 20.6845 165.86 21.064 165.86 21.6155C165.86 21.8454 165.929 22.5131 166.437 23.0073C167.36 23.8578 169.208 23.8575 169.335 23.8575C169.958 23.8575 171.666 23.765 173.271 22.8456C173.513 22.7191 174.149 22.3515 174.53 21.6618C174.795 21.1791 174.899 20.5468 174.922 19.9377V18.8919Z" fill="#F6F4FD"/>
<path fill-rule="evenodd" clip-rule="evenodd" d="M200.586 13.4774C201.394 13.4774 203.726 13.6165 205.435 15.421C205.689 15.6971 206.207 16.2722 206.565 17.1452C206.83 17.7543 206.946 18.2828 207.039 19.5126H195.806C195.887 21.0988 196.638 22.2593 197.723 22.9835C199.397 24.0984 201.694 24.1446 203.448 23.1102C204.083 22.7309 204.615 22.2141 204.973 21.559H206.634C206.242 22.5472 205.55 23.3976 204.638 24.0067C202.364 25.57 199.027 25.547 196.787 24.0067C195.206 22.9377 194.259 21.1216 194.293 19.1101C194.316 17.593 194.94 16.0526 196.094 15.0411C196.741 14.4663 198.288 13.4774 200.586 13.4774ZM200.447 14.7313C199.223 14.7313 198.161 15.0176 197.225 15.8912C196.671 16.4085 196.371 16.9263 196.233 17.1677C196.094 17.455 195.991 17.6853 195.864 18.2599H205.296C205.077 17.0762 204.476 16.2026 203.495 15.5589C202.929 15.2026 202.04 14.7313 200.447 14.7313Z" fill="#F6F4FD"/>
<path d="M150.598 15.49C153.172 12.6967 158.656 12.6967 161.23 15.49C161.738 16.0301 162.062 16.605 162.269 17.1452H160.526C160.479 17.0647 160.434 16.9832 160.399 16.9257C159.984 16.2016 159.083 15.1098 157.074 14.7765C156.255 14.627 155.573 14.627 154.753 14.7765C152.745 15.1098 151.844 16.2016 151.429 16.9257C151.186 17.305 150.794 18.1329 150.793 19.2706C150.793 19.6729 150.84 20.5468 151.336 21.4662C153.045 24.5927 158.644 24.6277 160.433 21.559H162.258C161.415 23.6509 159.487 24.5018 158.575 24.7892C157.074 25.2488 154.754 25.2488 153.253 24.7892C152.064 24.4099 149.166 23.099 149.166 19.2944C149.166 18.6048 149.247 16.9497 150.598 15.49Z" fill="#F6F4FD"/>
<path d="M215.675 13.5238C216.183 13.5238 218.329 13.5932 219.876 14.8454C220.338 15.2248 220.615 15.6273 220.731 15.7997C220.95 15.4894 221.123 15.2707 221.701 14.8454C222.462 14.2822 223.813 13.5702 226.076 13.5702C226.538 13.5702 228.466 13.6165 229.967 14.5934C230.313 14.8236 231.214 15.4667 231.664 16.6499C231.883 17.2361 231.894 17.7308 231.894 18.3515V24.8807H230.474V18.7076C230.474 18.4658 230.474 17.7072 230.14 16.9834C229.193 14.926 226.272 14.9495 225.937 14.9495C225.682 14.9495 222.82 14.9495 221.781 16.7652C221.481 17.2823 221.411 17.7535 221.411 18.3051V24.8807H219.957V18.7765C219.957 17.8345 219.853 17.4782 219.68 17.0072C218.999 15.3405 217.082 14.9495 215.547 14.9495C214.092 14.9495 212.049 15.3975 211.23 16.8342C210.987 17.2595 210.906 17.5239 210.906 18.4204V24.8807H209.429V13.8335H210.906V15.248C211.149 15.0411 211.391 14.8224 211.656 14.6385C213.169 13.5465 215.167 13.5238 215.675 13.5238Z" fill="#F6F4FD"/>
<path d="M52.9965 12.8263C56.8985 12.8493 60.7774 14.1132 60.7891 17.9637H56.0903C55.7554 16.5387 54.6705 16.1593 52.9851 16.1593C50.7573 16.1594 49.7765 16.872 49.7764 19.0672C49.7764 21.2626 50.7572 21.9876 52.9851 21.9876C54.6706 21.9876 55.7555 21.5958 56.0903 20.1819H60.7891C60.7775 24.0212 56.8986 25.2978 52.9965 25.3093C48.7829 25.2977 45.1004 23.7799 45.1004 19.0672C45.1005 14.3547 48.783 12.8494 52.9965 12.8263Z" fill="#F6F4FD"/>
<path fill-rule="evenodd" clip-rule="evenodd" d="M105.71 12.9517C106.126 12.9517 108.204 12.9523 109.865 13.274C110.166 13.3315 111.528 13.5382 112.371 14.4C113.386 15.4114 113.305 16.6991 113.305 17.1361V24.7576H108.63C108.503 24.2404 108.48 24.1942 108.433 23.6541C107.66 23.9991 105.408 25.0798 102.753 25.0798C99.0248 25.0797 97.7087 23.1822 97.7087 21.4121C97.7087 21.1359 97.7552 20.2401 98.2971 19.5048C98.9432 18.5973 100.155 18.2174 100.41 18.1481C102.384 17.5733 106.332 17.5155 108.353 17.481C108.352 16.0329 107.141 15.6992 105.883 15.6991C104.497 15.6991 103.469 15.9068 103.088 16.8954H98.1822C98.2977 16.2747 98.552 14.7 100.191 13.8608C101.207 13.3436 103.031 12.9517 105.71 12.9517ZM108.411 19.2979C107.522 19.3209 105.409 19.3086 104.105 19.6189C102.477 19.9868 102.292 21.9531 104.082 22.1945C105.663 22.4127 108.41 21.8145 108.411 19.2979Z" fill="#F6F4FD"/>
<path fill-rule="evenodd" clip-rule="evenodd" d="M70.0591 13.0445C70.5208 13.0445 71.7917 13.0441 73.1655 13.343C73.7776 13.4695 75.6358 13.9065 76.9285 15.5612C77.3557 16.1014 78.06 17.2174 78.06 19.0221C78.0597 22.3206 75.7854 23.6773 74.9081 24.1256C74.1114 24.5164 72.5639 25.056 70.3823 25.056C67.7046 25.0559 65.9848 24.2977 65.0497 23.6541C64.8303 23.5047 64.2411 23.1018 63.7793 22.4466C63.3637 21.9062 62.7174 20.8144 62.7173 19.0446C62.7173 16.4008 64.1604 15.0669 64.9107 14.5267C65.7881 13.883 67.5082 13.0791 70.0591 13.0445ZM70.3823 16.1593C68.2816 16.1594 67.0928 16.7344 67.0928 19.0446C67.0929 21.3662 68.2816 21.9411 70.3823 21.9412C72.4834 21.9412 73.6844 21.3665 73.6845 19.0446C73.6845 16.7342 72.4834 16.1593 70.3823 16.1593Z" fill="#F6F4FD"/>
<path fill-rule="evenodd" clip-rule="evenodd" d="M85.1719 9.5498L85.1946 14.3311C86.6492 13.3312 88.3812 12.9981 90.2167 12.9981C93.8415 12.9983 96.2312 15.3091 96.2312 18.9644C96.2311 22.7459 93.5527 24.9532 89.8239 24.9532C87.7344 24.9532 85.9335 24.1939 85.1946 23.7456V24.7576H80.069V9.5498H85.1719ZM88.1495 16.3436C86.2218 16.3437 85.1252 16.8838 85.1252 19.0446C85.1252 21.2169 86.2219 21.7568 88.1495 21.7569C90.0659 21.7569 91.1624 21.217 91.1625 19.0446C91.1625 16.8836 90.0659 16.3436 88.1495 16.3436Z" fill="#F6F4FD"/>
<path d="M125.913 13.1248C127.182 13.1248 128.29 13.2511 129.387 13.906C129.525 13.975 129.93 14.2282 130.253 14.5731C130.668 14.9983 130.9 15.5154 130.969 15.6878C131.246 16.4235 131.292 17.194 131.292 18.7688V24.7576H126.166V19.1136C126.166 18.9872 126.154 18.4463 125.992 17.975C125.484 16.4932 124.043 16.3776 123.569 16.3775C121.803 16.3775 121.224 17.608 121.04 18.2747C120.947 18.6422 120.936 18.8611 120.936 19.2402V24.7576H115.788V13.343H120.936V14.78C121.236 14.5731 121.536 14.3543 121.836 14.1819C123.614 13.1473 125.081 13.1248 125.913 13.1248Z" fill="#F6F4FD"/>
</svg>
